<?xml version="1.0" standalone="no"?>
<!DOCTYPE svg PUBLIC "-//W3C//DTD SVG 20010904//EN"
 "http://www.w3.org/TR/2001/REC-SVG-20010904/DTD/svg10.dtd">
<svg version="1.0" xmlns="http://www.w3.org/2000/svg"
 width="500.000000pt" height="500.000000pt" viewBox="0 0 500.000000 500.000000"
 preserveAspectRatio="xMidYMid meet">

<g transform="translate(0.000000,500.000000) scale(0.100000,-0.100000)"
fill="#000000" stroke="none">
<path d="M3246 4744 c-46 -17 -68 -33 -60 -45 3 -5 -1 -6 -9 -3 -17 6 -59 -44
-82 -99 -19 -45 -20 -137 -1 -180 7 -18 32 -54 56 -81 23 -28 47 -60 52 -72
16 -35 59 -48 151 -45 30 1 45 8 72 38 19 20 32 40 29 45 -3 4 1 5 9 2 17 -6
68 52 93 105 24 49 22 145 -3 202 -53 119 -187 177 -307 133z"/>
<path d="M2359 4581 c-115 -24 -198 -134 -199 -261 0 -90 30 -150 108 -218 52
-45 64 -62 77 -107 16 -55 14 -101 -7 -160 -20 -55 -36 -65 -99 -65 -47 0 -63
-5 -88 -26 -59 -49 -59 -139 0 -188 58 -49 137 -27 176 47 19 39 30 47 66 47
70 0 127 -64 127 -143 0 -80 18 -140 55 -180 19 -20 39 -37 45 -37 31 0 -2
-37 -60 -67 -64 -35 -66 -35 -166 -31 -95 4 -107 7 -193 48 -99 47 -174 114
-270 240 -52 68 -131 216 -131 245 0 24 -13 16 -55 -34 -68 -83 -116 -202 -77
-194 7 2 11 -1 9 -6 -4 -15 44 -72 55 -65 7 4 8 3 4 -5 -7 -10 29 -81 40 -81
3 0 2 5 -2 12 -4 7 -3 8 4 4 6 -4 9 -12 6 -19 -2 -7 3 -21 12 -32 8 -11 13
-15 10 -8 -4 6 -3 14 2 17 4 2 8 -7 9 -22 0 -15 13 -61 29 -102 21 -57 28 -94
30 -157 0 -45 -3 -80 -7 -77 -5 3 -9 -1 -9 -8 0 -23 -72 -85 -114 -98 -50 -16
-132 -8 -184 19 -22 11 -58 42 -79 67 -63 78 -177 115 -258 84 -33 -13 -129 8
-228 50 -38 16 -75 27 -80 23 -6 -3 -7 -1 -3 5 3 6 -11 20 -31 33 -46 27 -77
60 -93 99 -7 16 -16 27 -21 24 -5 -3 -6 2 -3 10 4 10 -1 18 -11 22 -11 5 -13
9 -5 14 8 5 7 12 -5 24 -9 9 -21 13 -27 10 -7 -4 -8 -2 -4 5 4 6 13 8 19 5 7
-4 -4 10 -23 30 -47 51 -67 61 -88 44 -15 -11 -15 -11 -5 3 11 14 8 17 -26 27
-46 14 -101 15 -133 3 -13 -5 -25 -8 -28 -8 -3 0 -15 -5 -28 -12 -20 -11 -21
-15 -10 -29 12 -15 11 -16 -5 -3 -16 12 -21 11 -48 -15 -76 -72 -106 -195 -72
-293 10 -30 25 -56 33 -59 12 -3 12 -2 2 6 -11 8 -11 10 0 15 10 3 14 -3 14
-18 0 -13 -5 -21 -10 -19 -6 3 -1 -3 11 -14 12 -11 20 -22 17 -25 -3 -3 10
-15 28 -28 18 -12 27 -16 21 -9 -9 10 -10 17 -2 27 15 18 29 16 44 -4 11 -15
15 -15 30 -3 12 10 19 10 23 3 12 -20 97 -36 120 -24 12 6 27 11 34 11 7 -1
-3 -9 -22 -20 -19 -11 -29 -19 -21 -20 23 0 122 61 115 72 -4 5 -16 0 -30 -13
-13 -12 -24 -17 -24 -11 0 7 6 12 13 12 8 0 7 4 -3 10 -8 5 -10 10 -5 11 45 5
64 5 60 0 -2 -4 22 -7 53 -7 101 -1 278 -78 318 -139 16 -25 16 -28 -10 -78
-31 -61 -32 -97 -7 -153 33 -72 111 -112 195 -99 33 6 52 19 101 70 68 71 112
91 180 81 122 -19 175 -131 112 -238 -21 -36 -24 -48 -14 -58 10 -12 9 -12 -5
-2 -10 8 -19 9 -22 3 -3 -5 -34 -25 -69 -44 -103 -58 -251 -92 -375 -88 -39 2
-52 -1 -47 -9 6 -9 2 -9 -13 -1 -12 6 -34 12 -49 13 -15 1 -57 15 -93 32 -36
17 -69 29 -75 27 -5 -1 -7 1 -3 5 9 8 -73 101 -111 126 -14 10 -32 16 -39 13
-8 -3 -10 0 -6 7 5 7 -1 9 -19 6 -15 -3 -24 -1 -21 3 3 5 -14 9 -36 9 -36 0
-41 -3 -36 -18 6 -15 5 -15 -8 1 -12 16 -19 17 -55 7 -23 -6 -39 -15 -36 -20
3 -6 0 -7 -7 -5 -22 9 -110 -90 -108 -120 1 -17 -15 -63 -27 -77 -8 -9 -12
-22 -8 -28 3 -6 1 -9 -6 -8 -23 5 -59 -82 -59 -142 0 -75 14 -119 51 -160 17
-19 25 -26 18 -15 -13 18 -12 19 3 7 9 -8 14 -20 11 -28 -3 -8 -1 -14 5 -14 5
0 20 -25 32 -56 21 -50 74 -109 98 -109 5 0 16 -7 24 -16 20 -20 122 -25 178
-8 44 13 130 82 130 104 0 7 3 15 8 17 4 2 20 22 35 46 15 24 44 60 63 82 23
25 30 40 22 43 -7 2 0 4 15 4 15 0 37 9 48 19 12 11 23 18 25 17 12 -8 23 -1
18 12 -4 8 -10 15 -15 15 -4 0 -6 -7 -2 -15 3 -9 2 -15 -3 -14 -5 1 -17 -1
-26 -5 -10 -4 -23 -6 -30 -3 -7 3 -3 6 10 6 15 1 21 5 16 13 -4 7 -3 8 4 4 11
-6 16 5 13 26 0 4 8 6 19 5 10 -1 17 -4 14 -8 -2 -4 3 -13 12 -20 13 -11 15
-10 12 5 -2 12 4 20 15 22 15 2 16 0 6 -12 -9 -11 -8 -14 5 -14 9 0 16 4 16
10 0 5 7 6 17 3 9 -4 14 -2 11 3 -4 5 6 9 20 10 15 0 76 6 135 13 183 20 340
-17 397 -94 14 -18 27 -32 30 -30 6 4 7 0 16 -97 7 -79 -16 -163 -71 -249 -18
-29 -31 -58 -28 -63 3 -5 2 -6 -4 -3 -10 6 -61 -40 -55 -50 2 -2 0 -8 -4 -11
-4 -4 -4 -1 0 6 10 17 3 15 -39 -9 -31 -19 -46 -21 -107 -16 -38 3 -76 11 -84
18 -8 6 -17 9 -20 6 -3 -3 4 -10 15 -17 12 -6 21 -15 21 -20 0 -6 -11 0 -25
12 -13 11 -22 24 -20 28 8 13 -24 33 -40 26 -12 -4 -13 -2 -6 13 6 10 7 22 3
26 -4 3 -7 10 -8 13 -4 35 -18 82 -24 82 -4 0 -7 7 -6 16 2 24 -46 56 -91 61
-43 5 -97 -12 -88 -27 4 -6 3 -10 -2 -9 -41 7 -67 -44 -61 -120 4 -47 10 -59
39 -83 18 -15 38 -28 44 -28 6 0 7 3 0 8 -16 12 -16 32 1 32 8 0 12 -5 9 -10
-3 -6 -2 -10 4 -10 6 0 8 -6 6 -13 -5 -11 58 -35 107 -40 9 -1 14 -5 11 -10
-3 -5 -10 -6 -17 -4 -7 3 -11 -11 -10 -44 0 -26 -3 -46 -7 -44 -9 6 -30 -20
-24 -28 3 -4 2 -5 -1 -2 -4 2 -29 -12 -56 -31 -27 -20 -70 -42 -96 -50 -31 -9
-36 -12 -14 -9 22 3 31 1 26 -6 -4 -7 -22 -9 -45 -6 -29 4 -36 2 -32 -8 4 -13
-8 -17 -94 -29 -16 -2 -23 3 -25 17 -2 11 -8 22 -15 24 -7 3 -9 -3 -6 -16 3
-13 1 -21 -7 -21 -7 0 -10 6 -7 13 2 6 -1 18 -8 24 -31 28 -104 -73 -105 -143
0 -52 11 -90 35 -120 22 -27 24 -27 22 -7 -1 12 -4 20 -9 17 -4 -2 -12 4 -17
15 -8 15 -7 20 6 25 21 9 31 -3 13 -14 -12 -8 -12 -10 4 -10 12 0 16 -5 13
-15 -4 -8 -2 -17 3 -20 5 -3 7 -12 4 -19 -3 -7 3 -19 12 -27 16 -12 17 -12 9
1 -5 8 -10 26 -10 40 0 14 -3 30 -6 35 -13 21 -19 64 -10 69 5 3 8 0 7 -7 -1
-16 37 -96 47 -97 4 0 7 7 7 15 0 24 20 17 21 -7 0 -21 1 -21 8 -4 7 18 8 18
14 3 9 -23 22 -21 35 5 9 21 11 20 17 -19 4 -24 11 -40 16 -37 5 3 9 1 9 -5 0
-5 -9 -12 -20 -14 -17 -4 -16 -4 2 -3 24 1 24 2 14 68 -3 20 -1 25 10 21 10
-4 11 -9 5 -17 -6 -7 -6 -18 -1 -26 7 -11 10 -8 15 12 5 20 11 25 28 21 15 -3
18 -2 9 5 -10 7 -10 11 2 21 8 7 17 8 20 2 10 -16 -5 -40 -26 -43 -12 -2 -25
-13 -29 -26 -7 -17 -6 -23 4 -19 6 2 12 9 12 14 0 6 3 15 8 19 4 4 7 1 7 -7 0
-8 9 0 20 16 11 17 17 38 14 49 -4 12 -2 16 5 12 6 -4 11 -2 11 4 0 7 -9 9
-22 6 -13 -3 -17 -3 -10 0 14 7 16 34 2 34 -5 0 -10 -5 -10 -11 0 -5 -5 -7
-10 -4 -11 7 12 35 29 35 6 0 10 10 10 23 -1 16 -2 18 -6 5 -6 -23 -21 -23
-19 0 0 9 12 23 26 30 14 7 17 10 8 8 -15 -4 -16 -2 -6 19 12 27 34 37 86 40
21 1 28 -1 20 -6 -27 -18 11 -8 63 15 37 16 78 25 128 28 40 2 68 2 61 0 -6
-2 -1 -9 12 -16 38 -20 59 -26 53 -17 -3 5 0 13 6 17 7 4 9 3 5 -4 -3 -6 -1
-14 5 -18 8 -5 8 -9 -1 -14 -9 -5 -7 -16 6 -41 14 -26 19 -56 19 -126 0 -79
-3 -95 -22 -122 -24 -32 -29 -46 -13 -36 6 4 7 -1 3 -11 -4 -11 -8 -13 -11 -6
-2 7 -8 12 -13 12 -6 0 -7 -5 -3 -12 5 -7 3 -8 -5 -3 -16 9 -83 -54 -77 -72 3
-7 0 -15 -6 -19 -7 -5 -8 -2 -3 6 5 8 4 11 -3 7 -18 -12 -42 -98 -42 -151 0
-56 34 -141 73 -183 12 -13 41 -33 63 -43 50 -22 154 -37 154 -22 0 6 10 8 23
4 21 -5 21 -5 5 12 -10 10 -18 20 -18 23 0 4 3 3 7 0 3 -4 17 0 31 9 13 8 26
13 29 10 9 -9 -18 -36 -30 -29 -6 3 -7 1 -3 -5 10 -17 27 -15 43 6 8 9 12 11
8 5 -11 -23 5 -14 52 30 59 54 83 110 83 193 0 41 -4 63 -10 59 -5 -3 -7 0 -4
9 7 18 -24 79 -36 71 -5 -3 -11 -1 -15 5 -4 6 -11 7 -17 4 -7 -5 -8 -2 -4 5 5
7 15 10 23 6 14 -5 14 -3 2 12 -27 34 -42 47 -56 49 -8 2 -18 6 -21 10 -4 4 1
4 11 1 19 -7 23 3 6 20 -28 28 -20 172 17 333 4 20 3 22 -5 10 -17 -23 -14 14
3 48 7 15 12 35 11 45 -2 9 1 15 6 11 5 -3 6 -10 3 -16 -4 -7 -2 -8 4 -4 6 4
8 14 5 24 -3 9 -2 14 2 10 5 -5 32 34 60 86 29 52 62 107 74 122 15 19 18 30
11 39 -8 9 -6 14 4 18 10 4 13 1 9 -9 -9 -23 11 -16 40 14 15 16 24 32 20 36
-4 4 1 4 11 0 13 -5 17 -4 13 3 -4 6 1 10 10 9 10 0 18 5 18 13 0 8 6 16 14
19 8 3 11 0 8 -5 -8 -13 25 -13 42 1 11 8 13 8 7 -1 -9 -17 6 -17 23 0 8 6 11
7 8 1 -3 -6 0 -11 8 -11 8 0 12 4 9 9 -3 4 2 5 10 2 9 -3 13 -10 10 -15 -3 -5
-1 -9 4 -9 5 0 25 -11 45 -24 19 -13 38 -21 42 -18 4 4 5 0 3 -8 -2 -8 3 -14
10 -12 8 1 11 -2 7 -7 -3 -6 3 -27 14 -48 40 -80 62 -178 69 -311 4 -72 4
-128 1 -126 -6 4 -23 -53 -20 -68 0 -5 -4 -8 -11 -8 -9 0 -9 -3 0 -12 18 -18
14 -32 -4 -17 -16 13 -25 6 -85 -69 -49 -61 -62 -168 -29 -240 22 -49 60 -101
60 -83 0 7 5 9 10 6 6 -4 8 -10 5 -14 -7 -12 25 -38 68 -56 44 -18 162 -21
151 -3 -5 8 -2 9 10 5 18 -7 89 24 102 44 5 8 1 8 -13 0 -11 -6 -24 -7 -28 -3
-5 4 -5 1 -1 -6 9 -15 1 -15 -25 -2 -11 6 -19 7 -18 3 3 -20 -2 -34 -11 -28
-6 4 -17 1 -25 -5 -11 -9 -15 -9 -15 -1 0 6 4 11 9 11 5 0 7 9 4 19 -3 13 1
21 14 25 21 7 51 88 34 94 -6 2 -11 15 -11 28 0 13 -4 24 -10 24 -5 0 -10 16
-10 35 0 48 -16 77 -53 98 -36 21 -27 32 35 42 50 9 48 20 -4 31 -40 9 -66 34
-34 34 12 0 16 10 16 39 0 47 7 53 49 41 23 -6 38 -5 59 7 23 12 24 14 5 10
-29 -6 -39 8 -16 22 16 9 16 10 2 11 -22 0 -34 -31 -17 -42 10 -7 9 -9 -2 -5
-9 2 -15 16 -15 35 -1 17 3 29 7 26 3 -2 2 10 -3 28 -12 39 -15 248 -5 298 5
27 4 31 -4 18 -6 -10 -13 -70 -15 -135 -2 -65 -5 -129 -5 -143 -2 -25 -2 -25
-8 -2 -4 13 -4 82 0 153 6 123 8 132 32 154 25 23 37 63 16 50 -6 -4 -8 -10
-6 -14 3 -4 1 -13 -3 -20 -6 -9 -9 -4 -8 13 0 14 4 26 9 26 5 0 4 8 -1 19 -8
15 -7 20 6 25 9 4 21 2 27 -4 8 -8 7 -10 -5 -5 -10 4 -16 0 -16 -10 0 -18 9
-19 25 -3 7 7 8 17 2 28 -6 12 -5 17 5 17 8 0 12 -5 9 -11 -3 -6 13 9 36 33
33 34 40 45 29 52 -8 5 -9 9 -4 9 6 0 16 -4 23 -9 8 -5 29 -3 50 5 45 16 114
17 164 4 21 -6 41 -11 45 -12 5 0 29 -18 56 -40 46 -39 64 -46 30 -13 -11 11
-13 19 -5 23 7 5 6 13 -3 25 -10 15 -14 15 -18 3 -3 -8 -1 -17 6 -20 9 -3 8
-5 -1 -5 -7 -1 -17 9 -22 21 -5 13 -9 17 -9 9 -1 -11 -4 -11 -16 -1 -8 7 -15
9 -15 5 0 -4 -7 -2 -15 5 -9 7 -55 16 -103 20 -76 6 -80 7 -32 9 30 2 72 2 94
1 26 -1 36 2 31 10 -4 7 -18 9 -36 5 -18 -4 -29 -3 -29 4 0 6 12 12 28 12 l27
1 -30 8 c-16 4 -25 8 -19 9 15 1 39 58 39 91 0 18 7 26 31 33 47 14 60 42 38
83 -10 19 -22 34 -26 34 -5 0 -8 5 -8 10 0 6 18 10 40 10 22 0 40 -4 40 -10 0
-5 -4 -10 -10 -10 -5 0 -10 -9 -10 -19 0 -11 5 -23 10 -26 6 -3 10 0 10 8 0
10 12 13 45 12 32 -2 45 2 45 11 0 8 4 14 9 14 4 0 6 22 3 49 -4 43 -2 50 17
56 11 3 21 10 21 15 0 4 7 11 16 14 12 5 14 1 9 -17 -5 -15 0 -12 18 13 17 24
22 40 16 51 -4 9 -5 20 -1 24 4 3 -2 13 -12 21 -11 8 -15 14 -9 14 15 0 36
-27 29 -39 -3 -5 1 -12 9 -15 9 -3 18 1 21 8 3 8 29 24 57 36 58 25 160 30
211 11 26 -10 27 -10 16 4 -8 10 -9 15 -1 15 14 0 51 -77 51 -106 0 -12 -11
-35 -24 -51 -34 -42 -46 -68 -46 -105 0 -69 62 -128 135 -128 41 0 78 16 70
30 -3 6 0 7 8 4 23 -8 51 45 51 97 0 31 -7 55 -22 76 -12 17 -22 40 -22 52 0
26 40 53 82 56 38 3 171 -32 242 -63 26 -12 52 -19 57 -16 5 3 6 -1 3 -9 -7
-19 50 -133 65 -129 7 1 10 -2 6 -8 -10 -17 66 -79 119 -96 82 -28 216 -4 201
35 -5 11 -3 12 10 1 13 -11 21 -8 51 21 49 46 79 106 64 124 -7 8 -10 20 -7
27 4 8 6 7 6 -4 2 -35 21 -17 23 20 5 107 -40 237 -75 215 -5 -3 -7 -1 -4 4 7
12 -56 72 -76 74 -7 0 -21 3 -32 7 -11 3 -47 5 -80 5 -66 0 -121 -21 -193 -76
-66 -49 -128 -44 -430 33 -133 33 -252 59 -265 56 -12 -3 -16 -3 -8 0 9 4 -8
16 -44 30 -67 28 -76 29 -50 11 13 -10 15 -16 6 -21 -7 -5 -15 -5 -18 -2 -4 3
-1 6 5 6 6 0 -2 14 -18 31 -19 22 -34 30 -45 25 -12 -4 -16 -2 -12 8 3 7 -10
28 -28 46 -19 18 -32 37 -29 41 2 4 -1 11 -7 15 -9 5 -10 0 -7 -14 4 -12 2
-22 -2 -22 -5 0 -11 13 -15 30 -4 17 -13 30 -21 30 -8 0 -14 5 -14 10 0 6 5
10 11 10 8 0 7 5 -1 15 -18 22 -23 12 -21 -43 l1 -47 -45 3 c-30 3 -45 9 -45
18 0 8 10 14 24 14 32 0 42 17 15 25 -17 6 -20 14 -18 54 3 54 -4 69 -37 81
-13 5 -24 16 -24 25 0 8 -9 15 -20 15 -11 0 -20 7 -20 15 0 8 -4 15 -9 15 -5
0 -13 10 -17 23 -4 12 -11 25 -16 28 -13 8 1 171 14 163 7 -4 7 2 2 17 -4 13
-8 34 -9 46 0 11 -3 19 -7 16 -5 -2 -8 15 -8 39 1 42 1 42 14 18 13 -22 14
-19 12 43 -1 46 2 71 11 79 7 6 13 16 12 22 -3 25 2 36 16 36 8 0 15 5 15 10
0 6 -7 10 -15 10 -8 0 -15 6 -15 14 0 9 -7 12 -20 9 -14 -4 -20 0 -20 12 0 11
-5 15 -14 12 -9 -4 -17 2 -21 13 -4 11 -12 17 -21 13 -8 -3 -14 1 -14 11 0 9
5 16 10 16 6 0 10 9 10 20 0 11 -5 20 -11 20 -6 0 -9 7 -6 15 4 8 2 17 -4 20
-5 4 -9 21 -9 38 1 39 -13 102 -30 139 -25 52 -105 72 -213 53 -45 -7 -50 -6
-78 21 -57 55 -92 247 -53 302 8 12 12 27 8 34 -4 6 -3 8 4 5 5 -4 29 14 51
40 52 59 76 134 67 212 -7 60 -45 138 -65 133 -7 -1 -10 2 -7 7 8 12 -51 61
-74 61 -10 0 -20 4 -22 10 -4 13 -105 21 -149 11z m561 -1124 c0 -24 -3 -28
-10 -17 -13 20 -13 63 0 55 6 -3 10 -21 10 -38z m-1100 -67 c0 -5 -2 -10 -4
-10 -3 0 -8 5 -11 10 -3 6 -1 10 4 10 6 0 11 -4 11 -10z m1140 -5 c0 -8 -6
-15 -14 -15 -8 0 -16 7 -20 15 -4 10 1 15 14 15 11 0 20 -7 20 -15z m-862
-120 c-3 -3 -9 2 -12 12 -6 14 -5 15 5 6 7 -7 10 -15 7 -18z m155 -80 c-3 -9
-8 -14 -10 -11 -3 3 -2 9 2 15 9 16 15 13 8 -4z m-365 -37 c-2 -7 4 -12 12
-10 12 3 12 1 3 -9 -6 -6 -9 -19 -6 -28 4 -13 3 -14 -5 -1 -6 8 -9 17 -6 21 2
4 0 10 -6 14 -13 8 -13 25 0 25 6 0 9 -6 8 -12z m1089 -60 c-3 -8 -6 -5 -6 6
-1 11 2 17 5 13 3 -3 4 -12 1 -19z m-2667 -8 c-6 -11 -13 -20 -16 -20 -2 0 0
9 6 20 6 11 13 20 16 20 2 0 0 -9 -6 -20z m1597 -32 c2 -18 0 -20 -7 -8 -12
18 -13 30 -2 30 4 0 9 -10 9 -22z m1083 -9 c0 -6 -8 -18 -17 -27 -16 -16 -16
-16 -10 1 4 10 7 25 7 33 0 9 5 12 10 9 6 -3 10 -11 10 -16z m-2620 -53 c0 6
7 11 15 11 14 0 14 -2 1 -15 -15 -15 -36 -9 -36 11 0 7 4 6 10 -3 5 -8 10 -10
10 -4z m210 -30 c0 -3 -4 -8 -10 -11 -5 -3 -10 -1 -10 4 0 6 5 11 10 11 6 0
10 -2 10 -4z m1960 -146 c0 -5 -8 -10 -17 -10 -15 0 -16 2 -3 10 19 12 20 12
20 0z m35 -45 c28 -7 57 -14 65 -16 8 -2 23 -12 34 -22 11 -10 27 -15 35 -12
9 3 12 3 8 -1 -9 -10 23 -45 34 -38 5 3 9 0 9 -6 0 -6 6 -8 13 -4 6 4 9 4 5 0
-5 -6 34 -73 90 -151 8 -12 7 -7 21 -108 11 -80 3 -173 -20 -233 -7 -21 -7
-30 3 -37 10 -7 9 -8 -3 -4 -8 3 -20 -3 -27 -13 -14 -23 -4 -34 17 -17 14 10
14 10 3 -5 -8 -9 -19 -15 -27 -12 -19 8 -29 -14 -14 -34 11 -14 11 -15 -1 -5
-11 10 -18 9 -37 -9 -26 -24 -30 -40 -8 -32 8 4 12 11 8 17 -4 6 -1 7 6 3 9
-6 8 -12 -6 -26 -12 -12 -20 -14 -25 -6 -6 8 -10 8 -15 0 -11 -16 -141 -84
-160 -84 -8 0 -13 -6 -10 -13 3 -8 -1 -14 -9 -14 -7 0 -11 3 -9 6 2 4 -34 6
-80 6 -46 0 -81 -3 -79 -7 2 -4 -10 0 -27 9 -17 8 -41 16 -54 17 -13 0 -21 4
-19 8 4 6 -6 11 -40 20 -14 4 -65 47 -103 87 -18 19 -33 31 -33 27 0 -5 -7 -3
-15 4 -8 7 -15 17 -15 23 0 6 7 2 15 -9 22 -29 18 -9 -10 46 -14 28 -32 80
-41 117 -26 109 -15 178 53 331 4 8 -1 10 -13 6 -11 -4 -5 4 13 17 17 13 59
48 93 77 72 61 122 89 180 98 26 4 37 10 29 15 -18 11 107 -1 166 -16z m-312
-18 c4 -10 -2 -13 -21 -9 -24 5 -25 6 -7 13 11 4 21 8 21 8 1 1 4 -5 7 -12z
m694 -49 c-2 -13 -4 -3 -4 22 0 25 2 35 4 23 2 -13 2 -33 0 -45z m-242 42 c-3
-5 -12 -10 -18 -10 -7 0 -6 4 3 10 19 12 23 12 15 0z m-465 -15 c0 -2 -10 -10
-22 -16 -21 -11 -22 -11 -9 4 13 16 31 23 31 12z m-83 -61 c-3 -3 -12 -4 -19
-1 -8 3 -5 6 6 6 11 1 17 -2 13 -5z m706 -89 c-7 -21 -12 -19 -10 4 0 11 5 18
9 15 4 -3 5 -11 1 -19z m367 -30 c0 -8 -4 -15 -10 -15 -5 0 -10 7 -10 15 0 8
5 15 10 15 6 0 10 -7 10 -15z m65 -45 c3 -5 2 -10 -4 -10 -5 0 -13 5 -16 10
-3 6 -2 10 4 10 5 0 13 -4 16 -10z m30 -30 c3 -6 -1 -7 -9 -4 -9 3 -16 2 -16
-4 0 -6 6 -12 13 -15 6 -3 3 -5 -9 -4 -15 1 -20 6 -16 19 5 19 27 24 37 8z
m-2745 -20 c-8 -5 -19 -10 -25 -10 -5 0 -3 5 5 10 8 5 20 10 25 10 6 0 3 -5
-5 -10z m2361 -32 c-3 -21 -6 -26 -9 -15 -3 17 3 47 11 47 2 0 1 -15 -2 -32z
m-21 4 c0 -12 -3 -12 -15 -2 -8 7 -15 13 -15 15 0 1 7 2 15 2 8 0 15 -7 15
-15z m444 -12 c-6 -6 -10 -3 -10 10 0 13 4 16 10 10 7 -7 7 -13 0 -20z m-44 6
c0 -11 -19 -15 -25 -6 -3 5 1 10 9 10 9 0 16 -2 16 -4z m43 -41 c-3 -9 -8 -14
-10 -11 -3 3 -2 9 2 15 9 16 15 13 8 -4z m107 1 c0 -9 -9 -14 -20 -13 -11 1
-20 5 -20 10 0 5 7 7 15 3 8 -3 15 -1 15 4 0 6 2 10 5 10 3 0 5 -6 5 -14z
m-167 -13 c-7 -2 -19 -2 -25 0 -7 3 -2 5 12 5 14 0 19 -2 13 -5z m-366 -65
c-2 -13 -4 -3 -4 22 0 25 2 35 4 23 2 -13 2 -33 0 -45z m-30 -25 c-3 -10 -5
-4 -5 12 0 17 2 24 5 18 2 -7 2 -21 0 -30z m183 -3 c0 -5 -4 -10 -10 -10 -5 0
-10 5 -10 10 0 6 5 10 10 10 6 0 10 -4 10 -10z m228 3 c-10 -2 -26 -2 -35 0
-10 3 -2 5 17 5 19 0 27 -2 18 -5z m102 -3 c0 -5 -4 -10 -10 -10 -5 0 -10 5
-10 10 0 6 5 10 10 10 6 0 10 -4 10 -10z m-498 -32 c-8 -8 -9 -4 -5 13 4 13 8
18 11 10 2 -7 -1 -18 -6 -23z m561 15 c-7 -2 -21 -2 -30 0 -10 3 -4 5 12 5 17
0 24 -2 18 -5z m-180 -10 c-7 -2 -19 -2 -25 0 -7 3 -2 5 12 5 14 0 19 -2 13
-5z m134 -9 c-3 -3 -12 -4 -19 -1 -8 3 -5 6 6 6 11 1 17 -2 13 -5z m78 -4 c3
-5 1 -10 -4 -10 -6 0 -11 5 -11 10 0 6 2 10 4 10 3 0 8 -4 11 -10z m-190 -10
c-3 -5 -11 -10 -16 -10 -6 0 -7 5 -4 10 3 6 11 10 16 10 6 0 7 -4 4 -10z m-48
-29 c21 18 15 1 -9 -23 -13 -13 -19 -16 -16 -6 4 9 2 21 -3 27 -6 8 -5 8 3 1
7 -6 16 -6 25 1z m321 -16 c-3 -3 -9 2 -12 12 -6 14 -5 15 5 6 7 -7 10 -15 7
-18z m-394 -35 c-5 -5 -10 3 -11 18 -1 22 0 24 9 8 6 -10 6 -22 2 -26z m21
-20 c-3 -5 -12 -10 -18 -10 -7 0 -6 4 3 10 19 12 23 12 15 0z m-55 -4 c0 -11
-19 -15 -25 -6 -3 5 1 10 9 10 9 0 16 -2 16 -4z m-304 -64 c1 -7 0 -8 -3 -2
-2 5 -9 10 -14 10 -6 0 -7 -6 -3 -12 5 -9 2 -9 -9 1 -22 17 -21 19 5 17 12 0
23 -7 24 -14z m1301 -34 c-3 -8 -6 -5 -6 6 -1 11 2 17 5 13 3 -3 4 -12 1 -19z
m-1982 -37 c3 -5 2 -12 -3 -15 -5 -3 -9 1 -9 9 0 17 3 19 12 6z m-435 -7 c0
-8 -19 -13 -24 -6 -3 5 1 9 9 9 8 0 15 -2 15 -3z m2885 -13 c-3 -6 -11 -11
-16 -11 -5 0 -4 6 3 14 14 16 24 13 13 -3z m-4265 -26 c0 -11 -29 -11 -33 -1
-4 10 1 12 14 9 10 -3 19 -7 19 -8z m596 3 c4 -7 3 -8 -4 -4 -6 4 -21 -10 -34
-34 -24 -42 -32 -47 -44 -28 -4 6 -3 8 2 5 6 -3 21 12 34 34 26 41 34 46 46
27z m1731 -5 c5 3 9 -3 9 -13 0 -18 -2 -18 -18 -3 -10 9 -18 21 -18 27 0 6 4
5 9 -3 5 -7 13 -11 18 -8z m-453 -39 c3 -8 2 -12 -4 -9 -6 3 -10 10 -10 16 0
14 7 11 14 -7z m407 -1 c12 -16 12 -17 -1 -7 -8 6 -22 14 -30 17 -13 5 -12 6
1 6 9 1 23 -7 30 -16z m1929 -2 c-13 -26 -27 -34 -35 -21 -4 6 -1 9 6 8 7 -2
14 3 15 10 3 20 4 22 14 22 7 0 7 -6 0 -19z m-4160 -21 c4 6 7 -2 6 -19 -1
-28 -2 -29 -13 -14 -7 9 -13 24 -12 32 0 12 2 13 6 2 4 -10 7 -10 13 -1z
m3850 0 c0 -5 -2 -10 -4 -10 -3 0 -8 5 -11 10 -3 6 -1 10 4 10 6 0 11 -4 11
-10z m44 -1 c-3 -5 18 -7 46 -5 l50 3 -27 -19 c-31 -20 -63 -24 -63 -7 0 5 -4
8 -8 5 -4 -2 -14 -1 -22 5 -11 6 -12 9 -2 9 7 0 11 4 8 8 -3 5 1 9 9 9 8 0 12
-4 9 -8z m113 -29 c-42 -23 -51 -25 -42 -9 8 12 43 27 65 28 8 1 -2 -8 -23
-19z m57 2 c3 -5 0 -9 -7 -9 -7 0 -21 -4 -32 -7 -13 -5 -12 -2 5 8 30 18 28
18 34 8z m-1694 -32 c0 -5 -5 -10 -11 -10 -5 0 -7 5 -4 10 3 6 8 10 11 10 2 0
4 -4 4 -10z m-2334 -26 c-1 -8 -6 -17 -12 -21 -5 -4 -6 -4 -2 1 4 5 3 14 -2
21 -7 8 -5 12 4 12 8 0 13 -6 12 -13z m368 0 c17 -7 21 -29 7 -38 -5 -3 -15 2
-22 12 -13 15 -12 16 4 3 10 -8 17 -9 17 -3 0 6 -8 16 -17 21 -20 12 -13 14
11 5z m-334 -64 c0 -5 -2 -10 -4 -10 -3 0 -8 5 -11 10 -3 6 -1 10 4 10 6 0 11
-4 11 -10z m120 -4 c0 -2 -7 -7 -16 -10 -8 -3 -12 -2 -9 4 6 10 25 14 25 6z
m21 -10 c-6 -7 -8 -22 -5 -32 6 -18 6 -18 -9 1 -13 17 -13 21 2 32 21 16 26
16 12 -1z m159 4 c-18 -12 -30 -13 -30 -2 0 4 10 9 22 9 18 2 20 0 8 -7z
m1947 4 c-3 -3 -12 -4 -19 -1 -8 3 -5 6 6 6 11 1 17 -2 13 -5z m-2182 -14 c13
-6 15 -9 5 -9 -13 -1 -13 -2 0 -11 8 -5 10 -10 5 -10 -6 0 -18 9 -28 20 -18
21 -14 24 18 10z m186 -13 c-7 -7 -14 -8 -21 -1 -6 6 -2 10 12 11 16 2 18 -1
9 -10z m2026 7 c-3 -3 -12 -4 -19 -1 -8 3 -5 6 6 6 11 1 17 -2 13 -5z m73 2
c0 -2 -11 -6 -25 -8 -14 -3 -25 -1 -25 3 0 5 11 9 25 9 14 0 25 -2 25 -4z
m-2239 -23 c13 -16 12 -17 -3 -4 -10 7 -18 15 -18 17 0 8 8 3 21 -13z m2051
-70 c-6 -2 -9 -10 -6 -15 4 -7 2 -8 -4 -4 -18 11 -14 26 6 25 10 0 12 -3 4 -6z
m-1362 -43 c6 -11 8 -20 6 -20 -3 0 -10 9 -16 20 -6 11 -8 20 -6 20 3 0 10 -9
16 -20z m678 -14 c-7 -8 -15 -12 -17 -11 -5 6 10 25 20 25 5 0 4 -6 -3 -14z
m-669 -42 c-6 -7 -15 -11 -21 -8 -5 3 -4 12 3 20 6 7 15 11 21 8 5 -3 4 -12
-3 -20z m-220 -20 c4 3 8 -1 8 -9 0 -11 -4 -12 -14 -4 -7 6 -12 19 -12 28 1
13 2 13 6 -2 2 -9 8 -15 12 -13z m81 -15 c-12 -9 -11 -10 8 -6 12 3 20 1 17
-3 -3 -5 1 -10 7 -13 10 -4 11 -7 1 -18 -11 -11 -13 -10 -13 4 0 10 -8 17 -20
17 -20 0 -26 11 -13 23 3 4 11 7 17 7 6 0 4 -5 -4 -11z m1178 -14 c-3 -3 -9 2
-12 12 -6 14 -5 15 5 6 7 -7 10 -15 7 -18z m-1171 -21 c-3 -3 -12 -4 -19 -1
-8 3 -5 6 6 6 11 1 17 -2 13 -5z m419 -16 c4 -7 4 -10 -1 -6 -4 4 -17 3 -29
-3 -20 -10 -20 -10 -2 5 24 19 23 19 32 4z m265 -7 c-7 -5 -13 -12 -14 -17 -2
-16 -32 -64 -39 -64 -13 0 -9 17 7 30 8 7 15 17 15 23 0 14 32 48 39 42 3 -4
0 -10 -8 -14z m-584 -45 c0 -8 -6 -12 -15 -9 -11 5 -11 7 0 14 7 5 13 9 14 9
0 0 1 -6 1 -14z m518 -65 c3 -5 0 -13 -6 -17 -8 -5 -9 -3 -4 6 6 10 4 12 -9 7
-10 -4 -15 -3 -11 3 8 13 22 13 30 1z m-535 -15 c0 -2 -8 -10 -17 -17 -16 -13
-17 -12 -4 4 13 16 21 21 21 13z m1257 -18 c-3 -8 -6 -5 -6 6 -1 11 2 17 5 13
3 -3 4 -12 1 -19z m-1244 -11 c3 -8 -1 -14 -8 -14 -7 0 -11 6 -8 14 3 7 6 13
8 13 2 0 5 -6 8 -13z m-150 -58 c-6 -6 -9 -19 -6 -28 4 -13 3 -14 -5 -1 -10
14 1 40 16 40 3 0 1 -5 -5 -11z m37 -9 c-8 -5 -19 -10 -25 -10 -5 0 -3 5 5 10
8 5 20 10 25 10 6 0 3 -5 -5 -10z m130 -10 c0 -5 -5 -10 -11 -10 -5 0 -7 5 -4
10 3 6 8 10 11 10 2 0 4 -4 4 -10z m-117 -15 c-3 -9 -8 -14 -10 -11 -3 3 -2 9
2 15 9 16 15 13 8 -4z m52 -5 c3 5 11 10 18 10 6 0 2 -6 -8 -14 -20 -14 -45
-11 -45 6 0 6 6 6 14 -1 10 -8 16 -9 21 -1z m-185 -30 c0 -11 -4 -20 -10 -20
-5 0 -10 9 -10 20 0 11 5 20 10 20 6 0 10 -9 10 -20z m667 -12 c-3 -8 -6 -5
-6 6 -1 11 2 17 5 13 3 -3 4 -12 1 -19z m33 -3 c0 -8 -2 -15 -4 -15 -2 0 -6 7
-10 15 -3 8 -1 15 4 15 6 0 10 -7 10 -15z m-175 -101 c0 -58 -10 -64 -13 -7
-1 25 -8 53 -15 62 -29 33 -29 45 -1 16 23 -23 29 -39 29 -71z m-605 56 c0 -5
-7 -10 -15 -10 -8 0 -15 5 -15 10 0 6 7 10 15 10 8 0 15 -4 15 -10z m762 -22
c-6 -6 -12 -4 -16 7 -3 9 -2 13 4 10 6 -3 10 0 11 7 0 10 2 10 6 0 3 -8 1 -18
-5 -24z m-11 -41 c-10 -9 -11 -8 -5 6 3 10 9 15 12 12 3 -3 0 -11 -7 -18z
m-117 -3 c3 -8 2 -12 -4 -9 -6 3 -10 10 -10 16 0 14 7 11 14 -7z m-14 -54 c0
-5 -5 -10 -11 -10 -5 0 -7 5 -4 10 3 6 8 10 11 10 2 0 4 -4 4 -10z m-560 -21
c0 -5 -7 -9 -15 -9 -9 0 -12 6 -9 15 6 15 24 11 24 -6z m565 -9 c-3 -5 -11
-10 -16 -10 -6 0 -7 5 -4 10 3 6 11 10 16 10 6 0 7 -4 4 -10z m-145 -206 c0
-8 -19 -13 -24 -6 -3 5 1 9 9 9 8 0 15 -2 15 -3z m960 -44 c0 -5 -2 -10 -4
-10 -3 0 -8 5 -11 10 -3 6 -1 10 4 10 6 0 11 -4 11 -10z m-84 -82 c4 -6 3 -8
-4 -4 -6 3 -13 2 -17 -4 -3 -5 -11 -10 -18 -10 -6 0 -2 7 9 15 23 18 21 17 30
3z m120 -69 c3 -6 16 -8 28 -5 11 3 28 1 36 -5 12 -8 10 -9 -7 -4 -14 4 -23 2
-23 -4 0 -6 7 -11 16 -11 8 0 12 -5 8 -11 -4 -8 -9 -8 -17 0 -14 14 -30 14
-22 1 3 -5 -3 -10 -14 -10 -12 0 -21 7 -21 16 0 8 5 12 10 9 11 -7 14 8 4 18
-9 8 -35 -3 -29 -13 3 -5 -6 -7 -21 -5 -31 3 -52 21 -25 21 11 0 17 -4 15 -8
-3 -4 0 -8 6 -8 6 0 13 7 16 15 7 17 30 20 40 4z m-1026 -85 c0 -8 -19 -13
-24 -6 -3 5 1 9 9 9 8 0 15 -2 15 -3z m388 -19 c-3 -3 -9 2 -12 12 -6 14 -5
15 5 6 7 -7 10 -15 7 -18z m-362 -20 l-1 -35 -20 21 c-20 20 -20 20 -1 35 11
8 20 14 21 14 1 0 1 -16 1 -35z m27 -49 c4 -10 1 -13 -8 -9 -8 3 -12 9 -9 14
7 12 11 11 17 -5z m47 3 c0 -13 -28 -18 -33 -6 -3 7 3 13 14 13 11 0 19 -3 19
-7z m235 1 c3 -6 -1 -7 -9 -4 -18 7 -21 14 -7 14 6 0 13 -4 16 -10z m-200 -16
l-30 -14 33 5 c20 3 31 1 27 -5 -7 -11 -36 -13 -60 -3 -15 5 -14 8 6 19 13 7
31 13 39 13 8 0 2 -6 -15 -15z m60 6 c-3 -5 -1 -10 6 -10 7 0 10 -3 6 -6 -9
-9 -28 6 -22 17 4 5 8 9 11 9 3 0 2 -4 -1 -10z"/>
<path d="M1410 400 c0 -5 5 -10 10 -10 6 0 10 5 10 10 0 6 -4 10 -10 10 -5 0
-10 -4 -10 -10z"/>
<path d="M2944 3565 c-3 -8 -4 -20 -1 -27 3 -7 6 -3 6 9 1 12 7 24 14 26 9 4
9 6 -1 6 -7 1 -15 -6 -18 -14z"/>
<path d="M3228 3360 c25 -23 23 -41 -2 -21 -11 9 -16 9 -22 0 -4 -7 -3 -9 3
-6 6 4 16 0 23 -8 10 -12 7 -17 -14 -26 -14 -7 -26 -16 -26 -20 0 -5 -16 -8
-35 -7 -28 1 -33 4 -23 15 8 10 8 17 -1 26 -10 9 -11 8 -6 -5 4 -11 2 -18 -5
-18 -6 0 -10 -10 -8 -22 2 -15 9 -21 18 -19 44 12 120 16 124 7 2 -7 9 -6 17
3 9 9 10 11 1 7 -7 -4 -15 0 -18 9 -6 13 -8 14 -15 3 -6 -9 -9 -9 -9 -1 0 7
11 24 26 40 l25 27 -11 -28 c-6 -16 -8 -31 -5 -34 3 -3 5 -1 5 5 0 10 14 13
65 14 29 0 28 1 -15 21 -25 12 -48 20 -52 20 -5 -1 -8 2 -8 6 0 5 -12 14 -27
21 l-28 13 23 -22z m67 -40 c3 -5 1 -10 -4 -10 -6 0 -11 5 -11 10 0 6 2 10 4
10 3 0 8 -4 11 -10z"/>
<path d="M3151 3303 c-1 -28 9 -29 39 -5 22 18 22 18 1 18 -12 0 -21 -7 -22
-16 0 -10 -3 -9 -9 5 -8 19 -9 19 -9 -2z"/>
<path d="M3375 3290 c3 -5 11 -10 16 -10 6 0 7 5 4 10 -3 6 -11 10 -16 10 -6
0 -7 -4 -4 -10z"/>
<path d="M3056 3278 c-11 -37 -13 -58 -5 -58 5 0 9 5 9 10 0 6 5 10 11 10 5 0
8 -4 4 -9 -3 -5 0 -13 6 -17 7 -4 9 -3 5 4 -3 6 2 13 11 15 17 4 17 5 1 6 -12
1 -18 9 -18 26 0 26 -18 35 -24 13z"/>
<path d="M3360 3266 c0 -2 7 -7 16 -10 8 -3 12 -2 9 4 -6 10 -25 14 -25 6z"/>
<path d="M3281 3246 c2 -2 15 -9 29 -15 24 -11 24 -11 6 3 -16 13 -49 24 -35
12z"/>
<path d="M3048 3203 c7 -3 16 -2 19 1 4 3 -2 6 -13 5 -11 0 -14 -3 -6 -6z"/>
<path d="M3040 3179 c0 -5 5 -7 10 -4 6 3 10 8 10 11 0 2 -4 4 -10 4 -5 0 -10
-5 -10 -11z"/>
<path d="M3388 3145 c2 -14 8 -25 12 -25 10 0 1 38 -10 45 -4 2 -5 -7 -2 -20z"/>
<path d="M3030 3126 c0 -19 -3 -41 -6 -50 -3 -9 -2 -16 4 -16 6 0 12 23 14 50
1 28 0 50 -4 50 -5 0 -8 -15 -8 -34z"/>
<path d="M3043 3007 c1 -14 5 -23 9 -21 4 2 9 0 12 -5 4 -5 2 -12 -4 -16 -16
-10 -12 -25 5 -19 20 8 19 17 -4 55 -18 30 -19 30 -18 6z"/>
<path d="M3335 2970 c-3 -5 -2 -10 4 -10 5 0 13 5 16 10 3 6 2 10 -4 10 -5 0
-13 -4 -16 -10z"/>
<path d="M3308 2943 c7 -3 16 -2 19 1 4 3 -2 6 -13 5 -11 0 -14 -3 -6 -6z"/>
<path d="M428 2913 c7 -3 16 -2 19 1 4 3 -2 6 -13 5 -11 0 -14 -3 -6 -6z"/>
<path d="M466 2908 c3 -5 10 -6 15 -3 13 9 11 12 -6 12 -8 0 -12 -4 -9 -9z"/>
<path d="M540 2916 c0 -2 7 -7 16 -10 8 -3 12 -2 9 4 -6 10 -25 14 -25 6z"/>
<path d="M3210 2750 c0 -5 5 -10 10 -10 6 0 10 5 10 10 0 6 -4 10 -10 10 -5 0
-10 -4 -10 -10z"/>
<path d="M3266 2695 c-3 -9 -5 -40 -4 -68 l1 -52 7 65 c7 70 6 80 -4 55z"/>
<path d="M3216 2685 c-9 -26 -7 -32 5 -12 6 10 9 21 6 23 -2 3 -7 -2 -11 -11z"/>
<path d="M3180 2021 c0 -17 2 -31 4 -31 8 0 13 51 5 56 -5 3 -9 -9 -9 -25z"/>
<path d="M3180 1886 c0 -14 4 -27 8 -30 5 -3 6 8 4 25 -5 35 -12 38 -12 5z"/>
<path d="M3207 1789 c-3 -11 -3 -18 0 -15 4 3 13 0 21 -7 13 -11 14 -9 2 13
-17 34 -17 34 -23 9z"/>
<path d="M3209 1758 c-5 -18 -6 -38 -1 -34 7 8 12 36 6 36 -2 0 -4 -1 -5 -2z"/>
<path d="M3233 1735 c0 -8 3 -13 5 -10 3 3 11 -3 19 -13 12 -15 12 -14 5 7
-10 29 -29 39 -29 16z"/>
<path d="M3770 1730 c0 -5 7 -7 15 -4 8 4 15 8 15 10 0 2 -7 4 -15 4 -8 0 -15
-4 -15 -10z"/>
<path d="M3850 1691 c0 -6 4 -13 10 -16 6 -3 7 1 4 9 -7 18 -14 21 -14 7z"/>
<path d="M3639 1631 c-5 -14 -11 -31 -14 -38 -2 -6 4 -10 13 -9 9 2 22 -3 27
-11 8 -10 10 -6 10 17 1 16 -3 30 -8 30 -5 0 -7 -7 -4 -14 4 -10 1 -13 -7 -10
-8 3 -11 15 -8 30 3 18 8 22 17 14 8 -7 12 -6 12 3 0 24 -28 14 -38 -12z"/>
<path d="M3083 1549 c-9 -9 -8 -18 4 -35 15 -24 33 -24 33 -1 0 7 -4 6 -10 -3
-8 -13 -10 -13 -10 2 0 9 6 19 13 22 6 3 1 3 -13 -1 -22 -5 -23 -4 -11 11 15
18 11 22 -6 5z"/>
<path d="M3696 1474 c-5 -14 -4 -15 9 -4 17 14 19 20 6 20 -5 0 -12 -7 -15
-16z"/>
<path d="M3104 1384 c3 -3 0 -17 -5 -31 -10 -27 -3 -47 13 -37 6 4 5 10 -3 15
-8 5 -9 9 -3 9 11 0 12 36 1 45 -4 3 -5 2 -3 -1z"/>
<path d="M3081 1294 c0 -11 3 -14 6 -6 3 7 2 16 -1 19 -3 4 -6 -2 -5 -13z"/>
<path d="M3070 1266 c0 -2 7 -7 16 -10 8 -3 12 -2 9 4 -6 10 -25 14 -25 6z"/>
<path d="M1760 1190 c-6 -11 -7 -20 -2 -20 6 0 12 9 15 20 3 11 3 20 1 20 -2
0 -8 -9 -14 -20z"/>
<path d="M848 1193 c-25 -6 -22 -18 5 -20 12 -1 38 -4 57 -6 20 -3 47 1 60 8
24 14 25 14 3 12 -13 -1 -23 -5 -23 -9 0 -4 -5 -8 -11 -8 -6 0 -9 7 -5 15 4
12 -3 15 -32 14 -20 -1 -45 -3 -54 -6z"/>
<path d="M1123 1105 c1 -20 -2 -29 -10 -27 -7 1 -12 -1 -12 -5 1 -5 1 -15 0
-23 -1 -13 -2 -13 -12 0 -9 13 -10 13 -6 0 2 -8 1 -24 -4 -36 -4 -11 -3 -27 3
-35 8 -11 9 -11 5 2 -6 18 36 86 65 107 19 14 15 38 -4 26 -6 -4 -14 0 -19 7
-6 9 -8 4 -6 -16z"/>
<path d="M2633 973 c-18 -7 -16 -50 3 -57 8 -3 12 -11 8 -17 -4 -8 -3 -9 4 -5
16 10 15 -6 0 -24 -11 -12 -10 -12 5 -1 10 8 17 9 17 3 0 -6 -7 -15 -17 -20
-14 -9 -14 -10 6 -17 12 -4 25 -4 28 -1 4 3 1 6 -5 6 -7 0 -12 4 -12 10 0 5 8
6 17 3 14 -6 15 -4 5 8 -62 74 -66 81 -54 100 7 10 11 19 10 18 -2 0 -9 -3
-15 -6z"/>
<path d="M2560 959 c0 -14 38 -44 46 -36 2 2 -7 14 -21 27 -17 16 -25 19 -25
9z"/>
<path d="M830 836 c0 -2 7 -6 15 -10 8 -3 15 -1 15 4 0 6 -7 10 -15 10 -8 0
-15 -2 -15 -4z"/>
<path d="M878 823 c7 -3 16 -2 19 1 4 3 -2 6 -13 5 -11 0 -14 -3 -6 -6z"/>
<path d="M2700 821 c0 -6 4 -13 10 -16 6 -3 7 1 4 9 -7 18 -14 21 -14 7z"/>
<path d="M2670 800 c0 -5 5 -10 11 -10 5 0 7 5 4 10 -3 6 -8 10 -11 10 -2 0
-4 -4 -4 -10z"/>
<path d="M2664 582 c23 -26 22 -26 30 -6 3 9 2 12 -5 9 -5 -4 -18 -1 -27 6
-13 11 -12 8 2 -9z"/>
<path d="M2648 568 c10 -13 10 -17 0 -21 -9 -4 -9 -6 -1 -6 20 -2 24 16 5 30
-15 13 -16 12 -4 -3z"/>
<path d="M2535 510 c-3 -5 -1 -10 4 -10 6 0 11 5 11 10 0 6 -2 10 -4 10 -3 0
-8 -4 -11 -10z"/>
</g>
</svg>
